<svg xmlns="http://www.w3.org/2000/svg" viewBox="0 0 64 64"><path fill="#111315" d="m20 20 12 12 7-29H24l-4 17z"/><path fill="#a60416" d="m34.89 3-6.21 25.68-5.35-5.35L28.11 3h6.78z"/><path fill="#212529" d="M44 20 32 32 25 3h15l4 17z"/><path fill="#dd051d" d="m40.67 23.33-5.35 5.35L29.11 3h6.78l4.78 20.33z"/><circle cx="32" cy="45.5" r="15.5" fill="#fccd1d"/><circle cx="32" cy="45.5" r="11.39" fill="#f9a215"/><path fill="#fccd1d" d="m33.1 39.43 1.21 2.11a1.26 1.26 0 0 0 .85.6l2.43.48a1.22 1.22 0 0 1 .67 2l-1.67 1.78a1.22 1.22 0 0 0-.33 1l.29 2.4a1.26 1.26 0 0 1-1.78 1.27l-2.24-1a1.3 1.3 0 0 0-1.06 0l-2.24 1a1.26 1.26 0 0 1-1.78-1.27l.29-2.4a1.22 1.22 0 0 0-.33-1l-1.67-1.78a1.22 1.22 0 0 1 .67-2l2.43-.48a1.26 1.26 0 0 0 .85-.6l1.21-2.11a1.28 1.28 0 0 1 2.2 0Z"/></svg>