<svg xmlns="http://www.w3.org/2000/svg" viewBox="0 0 64 64"><path fill="#212529" d="M41 27.69 32 34l-9-6.31V3h18v24.69z"/><path fill="#dd051d" d="M37 3v27.49L32 34l-5-3.51V3h10z"/><path fill="#fccd1d" d="m33.88 41.08 2.12 3.6a2.13 2.13 0 0 0 1.45 1l4.15.81A2.09 2.09 0 0 1 42.71 50l-2.87 3a2.08 2.08 0 0 0-.55 1.68l.49 4.1a2.14 2.14 0 0 1-3 2.16l-3.88-1.67a2.25 2.25 0 0 0-1.8 0L27.26 61a2.14 2.14 0 0 1-3-2.16l.49-4.1a2.08 2.08 0 0 0-.55-1.68l-2.87-3a2.09 2.09 0 0 1 1.16-3.49l4.15-.81a2.13 2.13 0 0 0 1.45-1l2.07-3.6a2.18 2.18 0 0 1 3.72-.08Z"/><path fill="#f9a215" d="M32 33a4 4 0 1 0 4 4 4 4 0 0 0-4-4Zm0 6a2 2 0 1 1 2-2 2 2 0 0 1-2 2Z"/></svg>